<?xml version="1.0" encoding="UTF-8" standalone="no"?>
<!-- Created with Inkscape (http://www.inkscape.org/) -->

<svg
   width="23.051851mm"
   height="28.693798mm"
   viewBox="0 0 23.051852 28.693797"
   version="1.1"
   id="svg21"
   xml:space="preserve"
   inkscape:export-filename="win.png"
   inkscape:export-xdpi="96"
   inkscape:export-ydpi="96"
   inkscape:version="1.2 (dc2aedaf03, 2022-05-15)"
   sodipodi:docname="debian.svg"
   xmlns:inkscape="http://www.inkscape.org/namespaces/inkscape"
   xmlns:sodipodi="http://sodipodi.sourceforge.net/DTD/sodipodi-0.dtd"
   xmlns:xlink="http://www.w3.org/1999/xlink"
   xmlns="http://www.w3.org/2000/svg"
   xmlns:svg="http://www.w3.org/2000/svg"
   xmlns:i="http://ns.adobe.com/AdobeIllustrator/10.0/"><sodipodi:namedview
     id="namedview23"
     pagecolor="#ffffff"
     bordercolor="#000000"
     borderopacity="0.25"
     inkscape:showpageshadow="2"
     inkscape:pageopacity="0.0"
     inkscape:pagecheckerboard="0"
     inkscape:deskcolor="#d1d1d1"
     inkscape:document-units="mm"
     showgrid="false"
     inkscape:zoom="2.587745"
     inkscape:cx="34.006442"
     inkscape:cy="131.38853"
     inkscape:window-width="2560"
     inkscape:window-height="1381"
     inkscape:window-x="0"
     inkscape:window-y="0"
     inkscape:window-maximized="1"
     inkscape:current-layer="layer1" /><defs
     id="defs18"><linearGradient
       inkscape:collect="always"
       id="linearGradient4148"><stop
         style="stop-color:#000000;stop-opacity:1;"
         offset="0"
         id="stop4150" /><stop
         style="stop-color:#000000;stop-opacity:0;"
         offset="1"
         id="stop4152" /></linearGradient><linearGradient
       inkscape:collect="always"
       id="linearGradient4138"><stop
         style="stop-color:#1abc9c;stop-opacity:1"
         offset="0"
         id="stop4140" /><stop
         style="stop-color:#2980b9;stop-opacity:1"
         offset="1"
         id="stop4142" /></linearGradient><linearGradient
       inkscape:collect="always"
       xlink:href="#linearGradient4138"
       id="linearGradient4144"
       x1="25"
       y1="1004.3622"
       x2="25"
       y2="1052.3622"
       gradientUnits="userSpaceOnUse" /><linearGradient
       inkscape:collect="always"
       xlink:href="#linearGradient4148"
       id="linearGradient4154"
       x1="24"
       y1="1028.3622"
       x2="49"
       y2="1028.3622"
       gradientUnits="userSpaceOnUse"
       gradientTransform="matrix(0.87348483,0.87348483,-0.87348483,0.87348483,901.29515,-895.22244)" /><linearGradient
       inkscape:collect="always"
       xlink:href="#linearGradient4148"
       id="linearGradient4154-3"
       x1="24"
       y1="1028.3622"
       x2="49"
       y2="1028.3622"
       gradientUnits="userSpaceOnUse"
       gradientTransform="matrix(0.87348483,0.87348483,-2.4566653,2.4566653,2529.3783,-2523.3055)" /><linearGradient
       inkscape:collect="always"
       xlink:href="#linearGradient4148"
       id="linearGradient4154-3-4"
       x1="24"
       y1="1028.3622"
       x2="49"
       y2="1028.3622"
       gradientUnits="userSpaceOnUse"
       gradientTransform="matrix(0.87348483,0.87348483,-3.7122845,3.7122845,3820.6096,-3814.5368)" /></defs><g
     inkscape:label="Layer 1"
     inkscape:groupmode="layer"
     id="layer1"
     transform="translate(-3.074862,0.6493379)"><path
       style="fill:#0078d6;fill-opacity:1;stroke-width:0.277047"
       d="m 2.1780407,65.925072 -5.9565,-0.87273 -0.07595,-4.63619 -0.07595,-4.63619 h 6.51729 6.517292 v 5.54094 c 0,5.10457 -0.03818,5.5384 -0.484831,5.50891 -0.266658,-0.0176 -3.165257,-0.42475 -6.441332,-0.90474 z m -10.1121954,-1.41248 c -1.219005,-0.19052 -3.3072423,-0.50078 -4.6405303,-0.68948 l -2.424156,-0.34307 v -3.98856 -3.98856 h 4.848313 4.8483137 v 4.70979 c 0,2.59038 -0.09351,4.6955 -0.207785,4.67803 -0.114281,-0.0175 -1.2051514,-0.18764 -2.4241554,-0.37815 z M -14.998841,50.390113 v -4.00462 l 0.900401,-0.15026 c 0.495221,-0.0826 2.396452,-0.34061 4.2249593,-0.57323 1.828507,-0.23262 3.6050674,-0.4847 3.9479114,-0.56018 l 0.623355,-0.13722 v 4.71507 4.715059 h -4.8483137 -4.848313 z m 11.0818597,-0.93121 v -4.6588 l 6.164284,-0.88732 c 3.390357,-0.48802 6.320123,-0.88498 6.510592,-0.88213 0.265331,0.004 0.346309,1.30083 0.346309,5.54611 v 5.540929 h -6.510593 -6.510592 z"
       id="path332"
       sodipodi:nodetypes="ccccccssscsscccccsssccsssccccccccssscccc" /><g
       style="overflow:visible"
       id="g190"
       transform="matrix(0.26458333,0,0,0.26458333,3.0965867,-0.6493379)"><g
         id="Layer_1"
         i:layer="yes"
         i:dimmedPercent="50"
         i:rgbTrio="#4F008000FFFF">
		<g
   id="g167">
			<path
   i:knockout="Off"
   fill="#a80030"
   d="m 51.986,57.297 c -1.797,0.025 0.34,0.926 2.686,1.287 0.648,-0.506 1.236,-1.018 1.76,-1.516 -1.461,0.358 -2.948,0.366 -4.446,0.229"
   id="path143" />
			<path
   i:knockout="Off"
   fill="#a80030"
   d="m 61.631,54.893 c 1.07,-1.477 1.85,-3.094 2.125,-4.766 -0.24,1.192 -0.887,2.221 -1.496,3.307 -3.359,2.115 -0.316,-1.256 -0.002,-2.537 -3.612,4.546 -0.496,2.726 -0.627,3.996"
   id="path145" />
			<path
   i:knockout="Off"
   fill="#a80030"
   d="m 65.191,45.629 c 0.217,-3.236 -0.637,-2.213 -0.924,-0.978 0.335,0.174 0.6,2.281 0.924,0.978"
   id="path147" />
			<path
   i:knockout="Off"
   fill="#a80030"
   d="m 45.172,1.399 c 0.959,0.172 2.072,0.304 1.916,0.533 1.049,-0.23 1.287,-0.442 -1.916,-0.533"
   id="path149" />
			<path
   i:knockout="Off"
   fill="#a80030"
   d="M 47.088,1.932 46.41,2.072 47.041,2.016 47.088,1.932"
   id="path151" />
			<path
   i:knockout="Off"
   fill="#a80030"
   d="m 76.992,46.856 c 0.107,2.906 -0.85,4.316 -1.713,6.812 l -1.553,0.776 c -1.271,2.468 0.123,1.567 -0.787,3.53 -1.984,1.764 -6.021,5.52 -7.313,5.863 -0.943,-0.021 0.639,-1.113 0.846,-1.541 -2.656,1.824 -2.131,2.738 -6.193,3.846 L 60.16,65.878 C 50.142,70.591 36.226,61.251 36.409,48.507 c -0.107,0.809 -0.304,0.607 -0.526,0.934 -0.517,-6.557 3.028,-13.143 9.007,-15.832 5.848,-2.895 12.704,-1.707 16.893,2.197 -2.301,-3.014 -6.881,-6.209 -12.309,-5.91 -5.317,0.084 -10.291,3.463 -11.951,7.131 -2.724,1.715 -3.04,6.611 -4.227,7.507 -1.597,11.737 3.004,16.808 10.787,22.773 1.225,0.826 0.345,0.951 0.511,1.58 -2.586,-1.211 -4.954,-3.039 -6.901,-5.277 1.033,1.512 2.148,2.982 3.589,4.137 -2.438,-0.826 -5.695,-5.908 -6.646,-6.115 4.203,7.525 17.052,13.197 23.78,10.383 -3.113,0.115 -7.068,0.064 -10.566,-1.229 -1.469,-0.756 -3.467,-2.322 -3.11,-2.615 9.182,3.43 18.667,2.598 26.612,-3.771 2.021,-1.574 4.229,-4.252 4.867,-4.289 -0.961,1.445 0.164,0.695 -0.574,1.971 2.014,-3.248 -0.875,-1.322 2.082,-5.609 l 1.092,1.504 c -0.406,-2.696 3.348,-5.97 2.967,-10.234 0.861,-1.304 0.961,1.403 0.047,4.403 1.268,-3.328 0.334,-3.863 0.66,-6.609 0.352,0.923 0.814,1.904 1.051,2.878 -0.826,-3.216 0.848,-5.416 1.262,-7.285 -0.408,-0.181 -1.275,1.422 -1.473,-2.377 0.029,-1.65 0.459,-0.865 0.625,-1.271 -0.324,-0.186 -1.174,-1.451 -1.691,-3.877 0.375,-0.57 1.002,1.478 1.512,1.562 -0.328,-1.929 -0.893,-3.4 -0.916,-4.88 -1.49,-3.114 -0.527,0.415 -1.736,-1.337 -1.586,-4.947 1.316,-1.148 1.512,-3.396 2.404,3.483 3.775,8.881 4.404,11.117 -0.48,-2.726 -1.256,-5.367 -2.203,-7.922 0.73,0.307 -1.176,-5.609 0.949,-1.691 C 83.519,18.706 76.074,10.902 69.225,7.24 70.063,8.007 71.121,8.97 70.741,9.121 67.335,7.093 67.934,6.935 67.446,6.078 64.671,4.949 64.489,6.169 62.651,6.08 57.421,3.306 56.413,3.601 51.6,1.863 l 0.219,1.023 c -3.465,-1.154 -4.037,0.438 -7.782,0.004 -0.228,-0.178 1.2,-0.644 2.375,-0.815 -3.35,0.442 -3.193,-0.66 -6.471,0.122 0.808,-0.567 1.662,-0.942 2.524,-1.424 -2.732,0.166 -6.522,1.59 -5.352,0.295 -4.456,1.988 -12.37,4.779 -16.811,8.943 l -0.14,-0.933 c -2.035,2.443 -8.874,7.296 -9.419,10.46 l -0.544,0.127 c -1.059,1.793 -1.744,3.825 -2.584,5.67 -1.385,2.36 -2.03,0.908 -1.833,1.278 -2.724,5.523 -4.077,10.164 -5.246,13.97 0.833,1.245 0.02,7.495 0.335,12.497 -1.368,24.704 17.338,48.69 37.785,54.228 2.997,1.072 7.454,1.031 11.245,1.141 -4.473,-1.279 -5.051,-0.678 -9.408,-2.197 -3.143,-1.48 -3.832,-3.17 -6.058,-5.102 l 0.881,1.557 c -4.366,-1.545 -2.539,-1.912 -6.091,-3.037 l 0.941,-1.229 C 28.751,98.334 26.418,96.056 25.78,94.795 l -1.548,0.061 c -1.86,-2.295 -2.851,-3.949 -2.779,-5.23 l -0.5,0.891 c -0.567,-0.973 -6.843,-8.607 -3.587,-6.83 -0.605,-0.553 -1.409,-0.9 -2.281,-2.484 l 0.663,-0.758 c -1.567,-2.016 -2.884,-4.6 -2.784,-5.461 0.836,1.129 1.416,1.34 1.99,1.533 -3.957,-9.818 -4.179,-0.541 -7.176,-9.994 L 8.412,66.472 C 7.926,65.74 7.631,64.945 7.24,64.165 l 0.276,-2.75 C 4.667,58.121 6.719,47.409 7.13,41.534 7.415,39.145 9.508,36.602 11.1,32.614 l -0.97,-0.167 c 1.854,-3.234 10.586,-12.988 14.63,-12.486 1.959,-2.461 -0.389,-0.009 -0.772,-0.629 4.303,-4.453 5.656,-3.146 8.56,-3.947 3.132,-1.859 -2.688,0.725 -1.203,-0.709 5.414,-1.383 3.837,-3.144 10.9,-3.846 0.745,0.424 -1.729,0.655 -2.35,1.205 4.511,-2.207 14.275,-1.705 20.617,1.225 7.359,3.439 15.627,13.605 15.953,23.17 l 0.371,0.1 c -0.188,3.802 0.582,8.199 -0.752,12.238 l 0.908,-1.912"
   id="path153" />
			<path
   i:knockout="Off"
   fill="#a80030"
   d="m 32.372,59.764 -0.252,1.26 c 1.181,1.604 2.118,3.342 3.626,4.596 -1.085,-2.118 -1.891,-2.993 -3.374,-5.856"
   id="path155" />
			<path
   i:knockout="Off"
   fill="#a80030"
   d="m 35.164,59.654 c -0.625,-0.691 -0.995,-1.523 -1.409,-2.352 0.396,1.457 1.207,2.709 1.962,3.982 l -0.553,-1.63"
   id="path157" />
			<path
   i:knockout="Off"
   fill="#a80030"
   d="m 84.568,48.916 -0.264,0.662 c -0.484,3.438 -1.529,6.84 -3.131,9.994 1.77,-3.328 2.915,-6.968 3.395,-10.656"
   id="path159" />
			<path
   i:knockout="Off"
   fill="#a80030"
   d="M 45.527,0.537 C 46.742,0.092 48.514,0.293 49.803,0 48.123,0.141 46.451,0.225 44.8,0.438 l 0.727,0.099"
   id="path161" />
			<path
   i:knockout="Off"
   fill="#a80030"
   d="m 2.872,23.219 c 0.28,2.592 -1.95,3.598 0.494,1.889 1.31,-2.951 -0.512,-0.815 -0.494,-1.889"
   id="path163" />
			<path
   i:knockout="Off"
   fill="#a80030"
   d="M 0,35.215 C 0.563,33.487 0.665,32.449 0.88,31.449 -0.676,33.438 0.164,33.862 0,35.215"
   id="path165" />
		</g>
	</g></g><g
       inkscape:label="Layer 1"
       id="layer1-3"
       transform="matrix(0.55932304,0,0,0.55932304,-63.377584,-531.3212)"><circle
         style="color:#000000;clip-rule:nonzero;display:inline;overflow:visible;visibility:visible;opacity:1;isolation:auto;mix-blend-mode:normal;color-interpolation:sRGB;color-interpolation-filters:linearRGB;solid-color:#000000;solid-opacity:1;fill:url(#linearGradient4144);fill-opacity:1;fill-rule:evenodd;stroke:none;stroke-width:20;stroke-linecap:butt;stroke-linejoin:miter;stroke-miterlimit:4;stroke-dasharray:none;stroke-dashoffset:0;stroke-opacity:1;marker:none;color-rendering:auto;image-rendering:auto;shape-rendering:auto;text-rendering:auto;enable-background:accumulate"
         id="path4136"
         cx="24"
         cy="1028.3622"
         r="24" /><g
         id="g4150"
         inkscape:transform-center-x="-5.3320308"
         inkscape:transform-center-y="5.3320093"
         transform="matrix(1.2352941,0,0,1.2352941,-5.6470588,-241.96758)"><path
           style="color:#000000;clip-rule:nonzero;display:inline;overflow:visible;visibility:visible;opacity:0.2;isolation:auto;mix-blend-mode:normal;color-interpolation:sRGB;color-interpolation-filters:linearRGB;solid-color:#000000;solid-opacity:1;fill:url(#linearGradient4154);fill-opacity:1;fill-rule:evenodd;stroke:none;stroke-width:20;stroke-linecap:butt;stroke-linejoin:miter;stroke-miterlimit:4;stroke-dasharray:none;stroke-dashoffset:0;stroke-opacity:1;marker:none;color-rendering:auto;image-rendering:auto;shape-rendering:auto;text-rendering:auto;enable-background:accumulate"
           d="m 27.494141,20.505859 -6.988282,6.988282 16.601563,16.599609 a 24,24 0 0 0 6.978516,-6.996094 z"
           transform="matrix(0.80952382,0,0,0.80952382,4.5714286,1008.9336)"
           id="rect4146" /><path
           style="color:#000000;clip-rule:nonzero;display:inline;overflow:visible;visibility:visible;opacity:0.2;isolation:auto;mix-blend-mode:normal;color-interpolation:sRGB;color-interpolation-filters:linearRGB;solid-color:#000000;solid-opacity:1;fill:url(#linearGradient4154-3);fill-opacity:1;fill-rule:evenodd;stroke:none;stroke-width:20;stroke-linecap:butt;stroke-linejoin:miter;stroke-miterlimit:4;stroke-dasharray:none;stroke-dashoffset:0;stroke-opacity:1;marker:none;color-rendering:auto;image-rendering:auto;shape-rendering:auto;text-rendering:auto;enable-background:accumulate"
           d="m 33.826172,14.173828 -0.441406,0.441406 A 13.279412,13.279412 0 0 1 37.279297,24 13.279412,13.279412 0 0 1 24,37.279297 13.279412,13.279412 0 0 1 14.615234,33.384766 l -0.441406,0.441406 13.832031,13.833984 A 24,24 0 0 0 47.640625,27.986328 Z"
           transform="matrix(0.80952382,0,0,0.80952382,4.5714286,1008.9336)"
           id="rect4146-1" /><path
           style="color:#000000;clip-rule:nonzero;display:inline;overflow:visible;visibility:visible;opacity:0.2;isolation:auto;mix-blend-mode:normal;color-interpolation:sRGB;color-interpolation-filters:linearRGB;solid-color:#000000;solid-opacity:1;fill:url(#linearGradient4154-3-4);fill-opacity:1;fill-rule:evenodd;stroke:none;stroke-width:20;stroke-linecap:butt;stroke-linejoin:miter;stroke-miterlimit:4;stroke-dasharray:none;stroke-dashoffset:0;stroke-opacity:1;marker:none;color-rendering:auto;image-rendering:auto;shape-rendering:auto;text-rendering:auto;enable-background:accumulate"
           d="m 38.849609,9.1464844 v 0.00391 L 37.695312,10.304688 A 19.378676,19.378676 0 0 1 43.378906,24 19.378676,19.378676 0 0 1 24,43.378906 19.378676,19.378676 0 0 1 10.304688,37.693359 l -1.1542974,1.15625 8.1875004,8.1875 A 24,24 0 0 0 24,48 24,24 0 0 0 48,24 24,24 0 0 0 47.046875,17.34375 Z"
           transform="matrix(0.80952382,0,0,0.80952382,4.5714286,1008.9336)"
           id="rect4146-1-9" /><path
           inkscape:connector-curvature="0"
           id="path4146-1-4-0"
           d="m 24.000001,1011.3622 a 1.4000001,1.4000002 0 0 0 -1.365041,1.0944 16.000001,16.000001 0 0 0 -8.92128,3.7031 1.4000001,1.4000002 0 0 0 -0.71368,-0.1975 1.4000001,1.4000002 0 0 0 -1.399999,1.4 1.4000001,1.4000002 0 0 0 0.197201,0.7132 16.000001,16.000001 0 0 0 -3.7103211,8.924 1.4000001,1.4 0 0 0 -1.0868804,1.3628 1.4000001,1.4 0 0 0 1.0944006,1.3651 16.000001,16.000001 0 0 0 3.7031189,8.9212 1.4000001,1.4 0 0 0 -0.197519,0.7137 1.4000001,1.4 0 0 0 1.399999,1.4 1.4000001,1.4 0 0 0 0.71112,-0.1959 16.000001,16.000001 0 0 0 8.926161,3.7092 1.4000001,1.4 0 0 0 1.36272,1.0867 1.4000001,1.4 0 0 0 1.3654,-1.0956 16.000001,16.000001 0 0 0 8.931799,-3.6952 1.4000001,1.4 0 0 0 0.7028,0.1908 1.4000001,1.4 0 0 0 1.399999,-1.4 1.4000001,1.4 0 0 0 -0.196719,-0.7124 16.000001,16.000001 0 0 0 3.72332,-8.9278 1.4000001,1.4 0 0 0 1.0734,-1.3598 1.4000001,1.4 0 0 0 -1.095599,-1.3654 16.000001,16.000001 0 0 0 -3.695802,-8.9309 1.4000001,1.4 0 0 0 0.1914,-0.7037 1.4000001,1.4 0 0 0 -1.399999,-1.4 1.4000001,1.4 0 0 0 -0.71272,0.1969 16.000001,16.000001 0 0 0 -8.92748,-3.7232 1.4000001,1.4000002 0 0 0 -1.359799,-1.0737 z m 0,0.6001 a 0.80000001,0.80000001 0 0 1 0.8,0.7999 0.80000001,0.80000001 0 0 1 -0.8,0.8 0.80000001,0.80000001 0 0 1 -0.800002,-0.8 0.80000001,0.80000001 0 0 1 0.800002,-0.7999 z m -1.31684,1.271 a 1.4000001,1.4000002 0 0 0 1.31684,0.9289 1.4000001,1.4000002 0 0 0 1.309319,-0.9092 15.2,15.2 0 0 1 8.435161,3.4939 1.4000001,1.4 0 0 0 -0.144482,0.6153 1.4000001,1.4 0 0 0 1.400001,1.4 1.4000001,1.4 0 0 0 0.61776,-0.1446 15.2,15.2 0 0 1 3.49812,8.4321 1.4000001,1.4 0 0 0 -0.915881,1.3125 1.4000001,1.4 0 0 0 0.909161,1.3093 15.2,15.2 0 0 1 -3.49384,8.4352 1.4000001,1.4 0 0 0 -0.61532,-0.1445 1.4000001,1.4 0 0 0 -1.400001,1.4 1.4000001,1.4 0 0 0 0.143921,0.6163 15.2,15.2 0 0 1 -8.4314,3.4996 1.4000001,1.4 0 0 0 -1.312519,-0.9159 1.4000001,1.4 0 0 0 -1.30896,0.9082 15.2,15.2 0 0 1 -8.441401,-3.4805 1.4000001,1.4 0 0 0 0.150361,-0.6277 1.4000001,1.4 0 0 0 -1.400001,-1.4 1.4000001,1.4 0 0 0 -0.616639,0.1441 15.2,15.2 0 0 1 -3.5117204,-8.4274 1.4000001,1.4 0 0 0 0.9283602,-1.3167 1.4000001,1.4 0 0 0 -0.9081998,-1.309 15.2,15.2 0 0 1 3.48112,-8.4412 1.4000001,1.4000002 0 0 0 0.627079,0.1502 1.4000001,1.4000002 0 0 0 1.400001,-1.4 1.4000001,1.4000002 0 0 0 -0.14436,-0.6172 15.2,15.2 0 0 1 8.42752,-3.5117 z m 1.31684,2.9288 a 1.4000001,1.4 0 0 0 -1.3678,1.1051 11.2,11.199999 0 0 0 -9.8322,11.095 11.2,11.199999 0 0 0 9.834239,11.0997 1.4000001,1.4 0 0 0 1.365761,1.1004 1.4000001,1.4 0 0 0 1.36784,-1.105 11.2,11.199999 0 0 0 9.832159,-11.0951 11.2,11.199999 0 0 0 -9.8342,-11.0997 1.4000001,1.4 0 0 0 -1.365799,-1.1004 z M 13,1016.5622 a 0.80000001,0.80000001 0 0 1 0.8,0.8 0.80000001,0.80000001 0 0 1 -0.8,0.8 0.80000001,0.80000001 0 0 1 -0.799999,-0.8 0.80000001,0.80000001 0 0 1 0.799999,-0.8 z m 22,0 a 0.80000001,0.80000001 0 0 1 0.799999,0.8 0.80000001,0.80000001 0 0 1 -0.799999,0.8 0.80000001,0.80000001 0 0 1 -0.799999,-0.8 0.80000001,0.80000001 0 0 1 0.799999,-0.8 z m -10.999999,0.2 a 0.80000001,0.80000001 0 0 1 0.8,0.7999 0.80000001,0.80000001 0 0 1 -0.8,0.8002 0.80000001,0.80000001 0 0 1 -0.800002,-0.8002 0.80000001,0.80000001 0 0 1 0.800002,-0.7999 z m -1.307721,1.2985 a 1.4000001,1.4 0 0 0 1.307721,0.9014 1.4000001,1.4 0 0 0 1.305558,-0.8988 10.4,10.4 0 0 1 9.094441,10.2989 10.4,10.4 0 0 1 -9.092241,10.3015 1.4000001,1.4 0 0 0 -1.307758,-0.9014 1.4000001,1.4 0 0 0 -1.305521,0.8988 10.4,10.4 0 0 1 -9.094479,-10.2989 10.4,10.4 0 0 1 9.092279,-10.3015 z m 1.307721,6.3015 a 4,4 0 0 0 -4.000001,4 4,4 0 0 0 4.000001,4 4,4 0 0 0 3.999999,-4 4,4 0 0 0 -3.999999,-4 z m -15.5999997,3.2001 a 0.80000001,0.80000001 0 0 1 0.7999999,0.7999 0.80000001,0.80000001 0 0 1 -0.7999999,0.7999 0.80000001,0.80000001 0 0 1 -0.7999999,-0.7999 0.80000001,0.80000001 0 0 1 0.7999999,-0.7999 z m 31.1999987,0 a 0.80000001,0.80000001 0 0 1 0.8,0.7999 0.80000001,0.80000001 0 0 1 -0.8,0.7999 0.80000001,0.80000001 0 0 1 -0.800001,-0.7999 0.80000001,0.80000001 0 0 1 0.800001,-0.7999 z m -15.599999,10.7998 a 0.80000001,0.80000001 0 0 1 0.8,0.8002 0.80000001,0.80000001 0 0 1 -0.8,0.7999 0.80000001,0.80000001 0 0 1 -0.800002,-0.7999 0.80000001,0.80000001 0 0 1 0.800002,-0.8002 z M 13,1038.5622 a 0.80000001,0.80000001 0 0 1 0.8,0.8 0.80000001,0.80000001 0 0 1 -0.8,0.8 0.80000001,0.80000001 0 0 1 -0.799999,-0.8 0.80000001,0.80000001 0 0 1 0.799999,-0.8 z m 22,0 a 0.80000001,0.80000001 0 0 1 0.799999,0.8 0.80000001,0.80000001 0 0 1 -0.799999,0.8 0.80000001,0.80000001 0 0 1 -0.799999,-0.8 0.80000001,0.80000001 0 0 1 0.799999,-0.8 z m -10.999999,4.6 a 0.80000001,0.80000001 0 0 1 0.8,0.8 0.80000001,0.80000001 0 0 1 -0.8,0.7999 0.80000001,0.80000001 0 0 1 -0.800002,-0.7999 0.80000001,0.80000001 0 0 1 0.800002,-0.8 z"
           style="color:#000000;clip-rule:nonzero;display:inline;overflow:visible;visibility:visible;opacity:1;isolation:auto;mix-blend-mode:normal;color-interpolation:sRGB;color-interpolation-filters:linearRGB;solid-color:#000000;solid-opacity:1;fill:#fcfcfc;fill-opacity:1;fill-rule:evenodd;stroke:none;stroke-width:3;stroke-linecap:round;stroke-linejoin:round;stroke-miterlimit:0.9;stroke-dasharray:none;stroke-dashoffset:0;stroke-opacity:1;color-rendering:auto;image-rendering:auto;shape-rendering:auto;text-rendering:auto;enable-background:accumulate" /></g></g></g></svg>
