<?xml version="1.0" encoding="iso-8859-1"?>
<!-- Uploaded to: SVG Repo, www.svgrepo.com, Generator: SVG Repo Mixer Tools -->
<svg version="1.1" id="Layer_1" xmlns="http://www.w3.org/2000/svg" xmlns:xlink="http://www.w3.org/1999/xlink" 
	 viewBox="0 0 512 512" xml:space="preserve">
<rect x="244.83" y="115.263" transform="matrix(-0.7071 -0.7071 0.7071 -0.7071 415.2961 503.0525)" style="fill:#B1C6E4;" width="134.008" height="100.506"/>
<rect x="302.008" y="138.959" transform="matrix(0.7071 0.7071 -0.7071 0.7071 232.0618 -181.8227)" style="fill:#9DB0CA;" width="67.004" height="100.506"/>
<path style="fill:#6E6057;" d="M311.827,331.341l-35.535-35.535l71.07-71.07l82.914,82.914c6.542,6.542,6.542,17.148,0,23.69l0,0
	C397.567,364.051,344.536,364.051,311.827,331.341z"/>
<path style="fill:#DBE9FD;" d="M153.915,418.237l-39.533,39.421c-26.132,26.244-68.568,26.244-94.7,0
	c-26.244-26.132-26.244-68.568,0-94.7l39.421-39.533l47.462,47.462L153.915,418.237z"/>
<path style="fill:#C5DCFD;" d="M153.915,418.237l-39.533,39.421c-26.132,26.244-68.568,26.244-94.7,0l86.883-86.771L153.915,418.237
	z"/>
<rect x="100.711" y="189.575" transform="matrix(-0.7071 -0.7071 0.7071 -0.7071 67.37 647.1532)" style="fill:#B1C6E4;" width="134.008" height="240.098"/>
<rect x="157.898" y="213.271" transform="matrix(0.7071 0.7071 -0.7071 0.7071 291.7528 -37.7133)" style="fill:#9DB0CA;" width="67.004" height="240.098"/>
<path style="fill:#6E6057;" d="M299.982,319.497L169.688,189.203c-6.542-6.542-6.542-17.148,0-23.69l47.379-47.379
	c6.542-6.542,17.148-6.542,23.69,0l130.294,130.294L299.982,319.497z"/>
<rect x="249.727" y="198.175" transform="matrix(0.7071 0.7071 -0.7071 0.7071 263.5273 -139.3555)" style="fill:#615349;" width="100.506" height="100.506"/>
<path style="fill:#DBE9FD;" d="M453.966,283.962L276.292,106.289l55.276-55.276c21.806-21.806,57.16-21.806,78.966,0l67.121,67.121
	c45.792,45.792,45.792,120.036,0,165.828l0,0C471.114,290.504,460.507,290.504,453.966,283.962z"/>
<path style="fill:#C5DCFD;" d="M477.656,118.135L418.431,58.91l-94.759,94.759l130.294,130.294c6.542,6.542,17.148,6.542,23.69,0
	C523.448,238.17,523.448,163.927,477.656,118.135z"/>
</svg>